<?xml version="1.0" ?><!DOCTYPE svg  PUBLIC '-//W3C//DTD SVG 1.1//EN'  'http://www.w3.org/Graphics/SVG/1.1/DTD/svg11.dtd'><svg enable-background="new 0 0 24 24" version="1.1" viewBox="0 0 24 24" xml:space="preserve" xmlns="http://www.w3.org/2000/svg" xmlns:xlink="http://www.w3.org/1999/xlink"><g id="Layer_27"/><g id="Layer_2"/><g id="Layer_3"/><g id="Layer_4"><g><path d="M22,8v11c0,1.65-1.35,3-3,3H5c-1.65,0-3-1.35-3-3V8c0-1.65,1.35-3,3-3h14C20.65,5,22,6.35,22,8z" fill="#6059B1"/></g><g><circle cx="12" cy="7" fill="#FFBF42" r="5"/></g><g><path d="M12,8c-0.2559,0-0.5117-0.0977-0.707-0.293c-0.3906-0.3906-0.3906-1.0234,0-1.4141l1-1    c0.3906-0.3906,1.0234-0.3906,1.4141,0s0.3906,1.0234,0,1.4141l-1,1C12.5117,7.9023,12.2559,8,12,8z" fill="#6059B1"/></g></g><g id="Layer_5"/><g id="Layer_6"/><g id="Layer_7"/><g id="Layer_8"/><g id="Layer_9"/><g id="Layer_10"/><g id="Layer_11"/><g id="Layer_12"/><g id="Layer_13"/><g id="Layer_14"/><g id="Layer_15"/><g id="Layer_16"><g id="Layer_17"/></g><g id="Layer_18"/><g id="Layer_19"/><g id="Layer_20"/><g id="Layer_21"/><g id="Layer_22"/><g id="Layer_23"/><g id="Layer_24"/><g id="Layer_25"/><g id="Layer_26"/></svg>