<?xml version="1.0" ?><svg data-name="Layer 3" id="Layer_3" viewBox="0 0 2050 2050" xmlns="http://www.w3.org/2000/svg"><defs><style>.cls-1{fill:#e0e1e2;}.cls-2{fill:#2e3a58;}.cls-3{fill:#1682fc;}</style></defs><title/><path class="cls-1" d="M1557.4,537.3,1243.6,851.1a23.5,23.5,0,0,0,0,32.9h.2a99.9,99.9,0,0,1,6.8,7.8l330.7-330.7Z"/><path class="cls-1" d="M1253.7,896c28.9,40.3,25.4,97.2-10.5,133.5a103.9,103.9,0,0,1-134.4,11.4,102,102,0,0,0,10.9,12.9,104,104,0,0,0,147.4-.4c39.5-40.1,39.8-105.1.6-145.4A104.7,104.7,0,0,0,1253.7,896Z"/><path class="cls-1" d="M884.1,1243.8c0-.1-.1-.1-.1-.2a23.5,23.5,0,0,0-32.9,0L537.3,1557.4l-68.6-68.6h0l92.5,92.5,330.7-330.7A99.9,99.9,0,0,1,884.1,1243.8Z"/><path class="cls-1" d="M1053.8,1119.7a102,102,0,0,0-12.9-10.9,103.9,103.9,0,0,1-11.4,134.4c-36.3,35.9-93.2,39.4-133.5,10.5a104.7,104.7,0,0,0,12,14c40.3,39.2,105.3,38.9,145.4-.6A104,104,0,0,0,1053.8,1119.7Z"/><path class="cls-2" d="M1193.2,1099.2a118.8,118.8,0,0,1-118.8-123.6,118.8,118.8,0,1,1-5.3-237.5h.5a118.5,118.5,0,0,1,82.9,33.5q3,3,6,6.3l319.7-319.8,21.2,21.2L1167.6,811.2a15,15,0,0,1-12.2,4.3,15.4,15.4,0,0,1-11.1-6.8,86.4,86.4,0,0,0-12.8-15.6c-34.4-33.5-90.2-33.2-124.3.5a88.9,88.9,0,0,0,81.3,150.1,14.9,14.9,0,0,1,17.8,17.8,88.8,88.8,0,0,0,86.9,107.7h.2a87.9,87.9,0,0,0,63-26.4c33.7-34.1,34-89.9.5-124.3a86.4,86.4,0,0,0-15.6-12.8,15.4,15.4,0,0,1-6.8-11.1,15,15,0,0,1,4.3-12.2l331.9-331.8,21.2,21.2L1272.1,891.5l6.3,6a118.9,118.9,0,0,1-84.9,201.7Z"/><path class="cls-2" d="M571.8,1591.9l-21.2-21.2,331.8-331.9a15,15,0,0,1,12.2-4.3,15.4,15.4,0,0,1,11.1,6.8,86.4,86.4,0,0,0,12.8,15.6c34.4,33.5,90.2,33.2,124.3-.5a88.9,88.9,0,0,0-81.3-150.1,14.9,14.9,0,0,1-17.8-17.8,88.8,88.8,0,0,0-86.9-107.7h-.2a87.9,87.9,0,0,0-63,26.4c-33.7,34.1-34,89.9-.5,124.3a86.4,86.4,0,0,0,15.6,12.8,15.4,15.4,0,0,1,6.8,11.1,15,15,0,0,1-4.3,12.2L479.3,1499.4l-21.2-21.2,319.8-319.7-6.3-6a118.9,118.9,0,0,1,84.9-201.7h.3a118.8,118.8,0,0,1,118.8,123.6,118.8,118.8,0,1,1,5.3,237.5h-.5a118.5,118.5,0,0,1-82.9-33.5q-3-3-6-6.3Z"/><rect class="cls-3" height="156.5" transform="translate(-93.2 153.1) rotate(-9.3)" width="30" x="881.7" y="572.4"/><rect class="cls-3" height="156.5" transform="translate(-249.8 1401.5) rotate(-80.7)" width="30" x="684.6" y="769.4"/><rect class="cls-3" height="140.19" transform="translate(-288 764.6) rotate(-45)" width="30" x="764" y="659.9"/><rect class="cls-3" height="156.5" transform="translate(35.5 2348.4) rotate(-80.7)" width="30" x="1384.3" y="1075.1"/><rect class="cls-3" height="156.5" transform="translate(-202 211.6) rotate(-9.3)" width="30" x="1187.3" y="1272.1"/><rect class="cls-3" height="140.19" transform="translate(-512.1 1305.6) rotate(-45)" width="30" x="1305" y="1200.9"/><path class="cls-3" d="M549.8,1498.3a5,5,0,0,1-3.6-1.4,5.1,5.1,0,0,1,0-7.1l42.5-42.4a4.8,4.8,0,0,1,7,0,5,5,0,0,1,0,7.1l-42.4,42.4A4.9,4.9,0,0,1,549.8,1498.3Zm84.8-84.8a5,5,0,0,1-3.5-8.5l42.4-42.5a5,5,0,0,1,7.1,7.1L638.2,1412A5.1,5.1,0,0,1,634.6,1413.5Zm84.9-84.9a5.4,5.4,0,0,1-3.6-1.4,5.1,5.1,0,0,1,0-7.1l42.5-42.4a4.9,4.9,0,0,1,7,7L723,1327.2A5.2,5.2,0,0,1,719.5,1328.6Zm84.8-84.8a5,5,0,0,1-3.5-8.5l42.4-42.5a5,5,0,1,1,7.1,7.1l-42.4,42.4A5.1,5.1,0,0,1,804.3,1243.8Z"/><path class="cls-3" d="M1208.6,846.4a4.9,4.9,0,0,1-3.5-1.5,5,5,0,0,1,0-7.1l42.4-42.4a5,5,0,0,1,7.1,7.1l-42.4,42.4A5.1,5.1,0,0,1,1208.6,846.4Zm84.9-84.9a5.4,5.4,0,0,1-3.6-1.4,5.1,5.1,0,0,1,0-7.1l42.5-42.4a4.9,4.9,0,0,1,7,7L1297,760.1A5.2,5.2,0,0,1,1293.5,761.5Zm84.8-84.8a4.9,4.9,0,0,1-3.5-1.5,5,5,0,0,1,0-7.1l42.4-42.4a5,5,0,0,1,7.1,7.1l-42.4,42.4A5.1,5.1,0,0,1,1378.3,676.7Zm84.9-84.9a5.4,5.4,0,0,1-3.6-1.4,5.1,5.1,0,0,1,0-7.1l42.5-42.4a4.9,4.9,0,0,1,7,7l-42.4,42.5A5.2,5.2,0,0,1,1463.2,591.8Z"/></svg>