<?xml version="1.0" encoding="UTF-8"?>
<svg enable-background="new 0 0 721.2 758.3" version="1.1" viewBox="0 0 721.2 758.3" xmlns="http://www.w3.org/2000/svg">
 <style type="text/css">.st0{fill:#009FE3;} .st1{fill:none;stroke:#E6007E;stroke-width:0.2835;stroke-miterlimit:10;} .st2{fill:#E6007E;} .st3{fill:#FFFFFF;}</style>
 <path class="st0" d="m542.7 547.8c-19.9 65.7-88.7 116.4-95.3 117.6 22.3-32 36.8-69.8 41-110.7 21.8-0.9 32-3 54.3-6.9z"/>
 <path class="st0" d="m597.2 533.8c-17.9 48.1-51 88.8-93.5 116.2-13.6 4.9-31.5 9-45.8 12.3 39.2-28.3 73.3-68.3 89.4-114.9 1.7-0.3 3.3-0.7 5-1 15.4-3.2 30.4-7.5 44.9-12.6z"/>
 <path class="st0" d="m716.3 462.2c-12.2 24-23.9 47.5-40.7 68.3-5.9 7.3-12.1 14.3-18.5 21.1-40.7 43.2-91.3 77-148.4 97.4 42.7-27.7 76-68.7 93.8-117.1 3.6-1.3 7.1-2.7 10.7-4.1 10.2-4.1 20.2-8.6 30-13.6 19-9.6 37.1-20.8 54.1-33.4 3.6-2.1 6.9-4.6 9.9-7.6 1.7-1.4 2.9-2.9 4-4.5 1-1.4 1.8-2.8 2.9-4.1 0.6-0.9 1.4-1.7 2.2-2.4z"/>
 <path class="st1" d="m133.8 0.1c0.1 0.5 0.2 0.9 0.3 1.4l-1.8 1.5c-74.4 63.9-123.7 156.3-131.3 260.2 0.9 0.4 1.8 0.9 2.7 1.3"/>
 <path class="st1" d="m1 263.2c7.6-103.9 56.9-196.3 131.3-260.3l1.8-1.5c3.3 15.8 5 32.1 5 48.9 0 25.1-3.9 49.3-11.2 72.1-8.1 25.6-20.5 49.3-36.3 70.2-12.4 16.4-26.8 31.2-43 44"/>
 <path class="st1" d="m260.2 652c-0.9 0.3-1.8 0.5-2.7 0.8"/>
 <path class="st1" d="m397.4 545.7c-0.4 0.7-0.8 1.3-1.2 2"/>
 <path class="st1" d="m436.2 680.3c-0.1 0-0.1 0 0 0-0.1 0-0.1 0 0 0z"/>
 <path class="st1" d="m257.5 652.8c-2.1-1.3-4.1-2.5-6.1-3.9"/>
 <path class="st1" d="m152.8 382.5c-0.4 1.4-0.8 2.7-1.2 4.1"/>
 <path class="st1" d="m587.5 457.4c0 4.4-3.5 7.9-7.9 7.9-4.3 0-7.9-3.5-7.9-7.9s3.5-7.9 7.9-7.9c4.3 0 7.9 3.6 7.9 7.9z"/>
 <path class="st2" d="m711.2 468.7c1-1.3 2-2.7 2.9-4.1-1.1 1.3-2 2.7-2.9 4.1z"/>
 <path class="st2" d="m673.6 391.8h-483.7c-11.5 0-22.8-1.4-33.5-4-1.6-0.4-3.2-0.8-4.7-1.2-13.8-3.9-26.7-9.7-38.4-17.3-6.9-4.4-13.4-9.5-19.4-15-20.8-19.2-35.9-44.5-42.3-73.1 0.6 0.1 1.3 0.3 1.9 0.4 16.7 3.7 34 5.7 51.9 5.7h2.8c10-0.1 19.8-0.8 29.4-2.2 27.9-3.8 54.3-12.4 78.2-25.1 26.2-13.8 49.5-32.4 68.7-54.6-28-11.6-58.6-18-90.8-18-36.1 0-70.3 8.1-100.9 22.5-15.8 7.4-30.6 16.5-44.2 27.1v-0.5c-13.8 10.9-28.9 20.3-45 27.9-0.9 0.5-1.9 0.9-2.8 1.3-0.5 7.3-0.8 14.6-0.8 22v3.4c0 54.3 11.4 105.9 31.9 152.6 18.5 42.1 44.3 80.2 75.9 112.6 39.8 40.9 88.7 72.8 143.5 92.5 2.9 1.1 5.9 2.1 8.9 3.1 13.3 4.4 26.9 8.1 40.8 11.1 4.9-13.1 11-25.6 18.1-37.4 18.8-31.6 44.8-58.4 75.7-78.2 0.9-0.6 1.7-1.1 2.6-1.7 14.4-9 29.8-16.5 46.1-22.2-13.9 7.3-27 15.9-39.1 25.7-10.9 8.8-21 18.6-30.2 29.2-22.1 25.5-38.8 55.7-48.5 89-1.2 4.1-2.3 8.2-3.2 12.4-2 8.5-3.5 17.2-4.5 26.1-1 9-1.6 18.3-1.6 27.6 0 8.4 0.4 16.6 1.3 24.8 47.2-13.4 88.3-41.1 118.6-78h-0.1 0.1c3.9-4.8 7.6-9.7 11.2-14.8 22.3-32 36.8-69.8 41-110.7 20.1-0.9 39.8-3.3 59-7.2 1.7-0.3 3.3-0.7 5-1 15.3-3.3 30.3-7.6 44.9-12.7 1.8-0.6 3.6-1.3 5.3-1.9 3.6-1.3 7.1-2.7 10.7-4.1 10.2-4.1 20.2-8.6 30-13.6 19-9.6 37.1-20.8 54.1-33.4 3.3-2.5 6.6-5 9.9-7.6 1.4-1.4 2.7-2.9 4-4.5 1-1.4 1.8-2.8 2.9-4.1 4.5-7.3 7.2-15.9 7.2-25.1-0.3-26.5-21.6-47.8-47.9-47.8zm-94 57.7c4.4 0 7.9 3.5 7.9 7.9s-3.5 7.9-7.9 7.9c-4.3 0-7.9-3.5-7.9-7.9s3.5-7.9 7.9-7.9z"/>
 <path class="st1" d="m3.7 264.5c-0.9 0.5-1.9 0.9-2.8 1.3 0-0.9 0.1-1.7 0.2-2.6 0.8 0.4 1.7 0.9 2.6 1.3z"/>
 <path class="st1" d="m48.7 236.5c16.1-12.7 30.6-27.5 43-44 15.8-21 28.2-44.7 36.3-70.2 7.3-22.7 11.2-46.9 11.2-72.1 0-16.8-1.7-33.1-5-48.9"/>
 <path class="st2" d="m139.1 50.3c0 25.1-3.9 49.3-11.2 72.1-8.1 25.6-20.5 49.3-36.3 70.2-12.4 16.5-26.8 31.2-43 44-13.8 10.9-28.9 20.3-45 27.9-0.9-0.4-1.8-0.8-2.7-1.3 7.7-103.9 57-196.3 131.4-260.3l1.8-1.5c3.3 15.8 5 32.1 5 48.9z"/>
 <path class="st1" d="m443.5 523.5c-13.9 7.3-27 15.9-39.1 25.7l-8.1-1.5c-0.5-0.1-1-0.2-1.4-0.3 0.9-0.6 1.7-1.1 2.6-1.7 14.3-9 29.7-16.4 46-22.2z"/>
 <path class="st1" d="m156.4 387.8c-1.2-1.8-2.4-3.5-3.5-5.3"/>
 <path class="st1" d="m133.8 0.1c-0.5 0.9-1 1.9-1.5 2.8l1.8-1.5c3.3 15.8 5 32.1 5 48.9 0 25.1-3.9 49.3-11.2 72.1-8.1 25.6-20.5 49.3-36.3 70.2"/>
 <path class="st1" d="m48.7 236.5c16.1-12.7 30.6-27.5 43-44 15.8-21 28.2-44.7 36.3-70.2"/>
 <path class="st1" d="m707.2 473.2c-2.9 2.9-6.2 5.5-9.9 7.6 3.4-2.5 6.7-5 9.9-7.6z"/>
 <circle class="st2" cx="529.6" cy="216.6" r="11.2"/>
 <circle class="st2" cx="508.8" cy="327.7" r="11.2"/>
 <circle class="st2" cx="509.6" cy="274.4" r="21.7"/>
 <circle class="st2" cx="571.7" cy="293.9" r="15.8"/>
 <circle class="st2" cx="549" cy="360.7" r="17.8"/>
 <path class="st3" d="m587.5 457.4c0 4.4-3.5 7.9-7.9 7.9-4.3 0-7.9-3.5-7.9-7.9s3.5-7.9 7.9-7.9c4.3 0 7.9 3.6 7.9 7.9z"/>
</svg>
