<?xml version="1.0" ?><svg enable-background="new 0 0 64 64" id="Слой_1" version="1.1" viewBox="0 0 64 64" xml:space="preserve" xmlns="http://www.w3.org/2000/svg" xmlns:xlink="http://www.w3.org/1999/xlink"><g id="row_2"><g id="toilet"><path d="M29.4,38c-1.3,0-2.6-0.3-3.7-0.9l-4.6-2.4c-0.9-0.4-1.8-0.7-2.8-0.7H16c4,2.6,7.3,5.8,8.9,10l1.3,0    c0.8,0,1.4-0.8,1-1.6c-0.4-0.8-0.8-1.6-1.6-2.6C25.4,39.5,25.6,39,26,39h0.5c0.6,0,1.2,0.3,1.6,0.7l2,2.5c0.4,0.5,1,0.7,1.6,0.7    h0.4c0.5,0,0.9,0.2,1.3,0.5c1.3,1.1,2.9,2,4.6,2.5c0.5,0.2,0.4,1-0.2,1L20,47v3h5c0.6,0,1,0.5,1,1.1c-0.1,2.4-0.6,5.3-1.4,7.2    C24,59.6,25,61,26.4,61h22.1c1.4,0,2.4-1.4,1.9-2.7C49.5,56,49,53.6,49,51c0-1.6,0.2-3.1,0.6-4.6c0.3-1.3,1.2-2.5,2.3-3.3    c1.8-1.3,3.1-3.4,3.1-5.1H29.4z" fill="#CFD8DC"/><path d="M38,46c-1.7-0.6-3.2-1.4-4.6-2.5C33,43.2,32.6,43,32.1,43h-0.4c-0.6,0-1.2-0.3-1.6-0.7l-2-2.5    c-0.4-0.5-1-0.7-1.6-0.7H26c-0.4,0-0.6,0.5-0.4,0.8c0.8,0.9,1.2,1.8,1.6,2.6c0.3,0.8-0.2,1.6-1,1.6l-1.3,0H20v3l17.8,0    C38.4,47,38.5,46.2,38,46z" fill="#B0BEC5"/><path d="M21.1,34.7l4.6,2.4c1.1,0.6,2.4,0.9,3.7,0.9H55c0.7,0,1.4-0.4,1.6-1.1c0.1-0.2,0.2-0.4,0.2-0.6    c0.3-0.7-0.2-1.4-0.9-1.4l-27.6,0c-1.6,0-3.1-0.6-4.2-1.8l-1.7-1.7c-0.4-0.4-0.9-0.6-1.4-0.6H14v0.6c0,0.8,0.3,1.5,0.9,2    c0.3,0.3,0.7,0.4,1.1,0.4h2.3C19.3,34,20.2,34.2,21.1,34.7z" fill="#ECEFF1"/><path d="M57,35H31v-1c0-0.6,0.4-1,1-1h24c0.6,0,1,0.4,1,1V35z" fill="#4FC3F7"/><path d="M57,32H31v-1c0-0.6,0.4-1,1-1h24c0.6,0,1,0.4,1,1V32z" fill="#81D4FA"/><rect fill="#616161" height="4" width="2" x="22" y="13"/><path d="M23.2,10H22H10v21c0,0.6,0.4,1,1,1l9.2,0c1,0,1.9-0.8,2-1.8C22.5,26,23.2,15.8,23.2,10z" fill="#CFD8DC"/><path d="M23,11H10c-0.6,0-1-0.4-1-1V9c0-1.1,0.9-2,2-2l6.4,0.6c2.4,0.2,4.6,1,6.6,2.4l0,0C24,10.6,23.6,11,23,11z" fill="#81D4FA"/></g></g></svg>