<svg id="Layer_1" enable-background="new 0 0 512.004 512.004" height="512" viewBox="0 0 512.004 512.004" width="512" xmlns="http://www.w3.org/2000/svg"><g id="XMLID_1344_"><path id="XMLID_492_" d="m408.071 10.002-7.084 11.244c-14.716 23.36-22.525 50.406-22.525 78.015 0 32.461 9.422 64.224 27.124 91.435 27.764 42.678 42.543 92.498 42.543 143.412 0 20.267-2.343 40.466-6.982 60.195l-25.323 107.698h-137.695v-124h-22.127-22.127v124h-137.695l-25.323-107.697c-4.639-19.729-6.982-39.928-6.982-60.195 0-50.914 14.779-100.734 42.543-143.412 17.701-27.21 27.124-58.973 27.124-91.435 0-27.609-7.809-54.655-22.525-78.015l-7.084-11.244h304.138z" fill="#ffd0c7"/><path id="XMLID_1343_" d="m410.564 198.658h-309.124l-30.985 77.005 163.42 102.339h44.254l163.42-102.339z" fill="#8aa8bd"/><g id="XMLID_213_"><path id="XMLID_214_" d="m429.078 445.635c-5.377-1.271-10.759 2.068-12.023 7.445l-10.965 46.633c-1.265 5.376 2.069 10.76 7.445 12.023.77.182 1.54.268 2.298.268 4.535 0 8.643-3.106 9.726-7.713l10.965-46.633c1.264-5.376-2.07-10.76-7.446-12.023z"/><path id="XMLID_244_" d="m388.462 99.262c0-25.757 7.257-50.891 20.986-72.686l7.084-11.244c2.943-4.673 1.542-10.847-3.131-13.791-4.674-2.945-10.847-1.542-13.791 3.131l-7.084 11.244c-15.743 24.991-24.064 53.812-24.064 83.346 0 31.542 8.322 62.263 24.132 89.396h-273.184c15.811-27.133 24.132-57.855 24.132-89.396 0-29.534-8.321-58.354-24.064-83.346l-7.084-11.244c-2.944-4.673-9.117-6.076-13.791-3.131-4.673 2.944-6.075 9.118-3.131 13.791l7.084 11.244c13.729 21.795 20.986 46.929 20.986 72.686 0 30.6-8.82 60.331-25.507 85.981-28.89 44.409-44.16 95.886-44.16 148.865 0 21.009 2.438 42.031 7.247 62.484l25.323 107.698c1.083 4.606 5.189 7.713 9.726 7.713.758 0 1.528-.087 2.298-.268 5.376-1.264 8.71-6.647 7.445-12.023l-25.323-107.697c-4.456-18.954-6.716-38.437-6.716-57.906 0-14.254 1.201-28.389 3.549-42.282l146.451 91.712v118.463c0 5.522 4.478 10 10 10s10-4.478 10-10v-114h24.254v114c0 5.522 4.478 10 10 10s10-4.478 10-10v-118.463l146.451-91.712c2.348 13.893 3.549 28.028 3.549 42.282 0 10.688-.688 21.48-2.042 32.078-.701 5.479 3.172 10.487 8.65 11.188.431.056.858.082 1.281.082 4.958 0 9.261-3.685 9.906-8.732 1.463-11.437 2.204-23.082 2.204-34.615 0-52.979-15.271-104.456-44.16-148.865-16.686-25.652-25.506-55.384-25.506-85.983zm-113.206 268.74h-38.507l-154.9-97.003c5.594-21.735 14.09-42.685 25.324-62.34h297.659c11.235 19.656 19.73 40.605 25.324 62.34z"/><path id="XMLID_245_" d="m502.002 84.502h-55.357l5.258-5.258c3.905-3.905 3.905-10.237 0-14.143-3.906-3.904-10.236-3.904-14.143 0l-22.329 22.329c-3.905 3.905-3.905 10.237 0 14.143l22.329 22.329c1.953 1.952 4.512 2.929 7.071 2.929s5.118-.977 7.071-2.929c3.905-3.905 3.905-10.237 0-14.143l-5.258-5.258h55.357c5.522 0 10-4.478 10-10s-4.477-9.999-9.999-9.999z"/><path id="XMLID_246_" d="m60.102 109.76c-3.905 3.905-3.905 10.237 0 14.143 1.953 1.952 4.512 2.929 7.071 2.929s5.118-.977 7.071-2.929l22.329-22.329c3.905-3.905 3.905-10.237 0-14.143l-22.329-22.33c-3.906-3.904-10.236-3.904-14.143 0-3.905 3.905-3.905 10.237 0 14.143l5.258 5.258h-55.357c-5.522 0-10 4.478-10 10s4.478 10 10 10h55.357z"/><path id="XMLID_247_" d="m256.002 146.002c2.63 0 5.21-1.07 7.069-2.931 1.86-1.859 2.931-4.439 2.931-7.069s-1.07-5.21-2.931-7.07c-1.859-1.86-4.439-2.93-7.069-2.93s-5.21 1.069-7.07 2.93c-1.86 1.86-2.93 4.44-2.93 7.07s1.069 5.21 2.93 7.069c1.86 1.861 4.44 2.931 7.07 2.931z"/><path id="XMLID_248_" d="m437.092 401.571c-2.64 0-5.21 1.061-7.07 2.931-1.87 1.859-2.93 4.439-2.93 7.069 0 2.631 1.06 5.2 2.93 7.07 1.86 1.86 4.431 2.93 7.07 2.93 2.63 0 5.21-1.069 7.06-2.93 1.87-1.87 2.931-4.439 2.931-7.07 0-2.63-1.061-5.21-2.931-7.069-1.85-1.87-4.43-2.931-7.06-2.931z"/></g></g></svg>